<svg overflow="hidden" xmlns:xlink="http://www.w3.org/1999/xlink" xmlns="http://www.w3.org/2000/svg" viewBox="20.026600674915635 90.30268799999999 1223.8470191226097 577.43136" style="max-height: 500px" width="1223.8470191226097" height="577.43136"><g><rect fill="#FFFFFF" height="720" width="1280" y="0" x="0"/><rect fill="#222A35" stroke-miterlimit="8" stroke-width="3" stroke="#000000" height="273" width="70" y="124.5" x="125.5"/><text transform="translate(148.765 247)" font-size="16" font-weight="700" font-family="Times New Roman,Times New Roman_MSFontService,sans-serif" fill="#FFFFFF">AC</text><text transform="translate(138.572 267)" font-size="16" font-weight="700" font-family="Times New Roman,Times New Roman_MSFontService,sans-serif" fill="#FFFFFF">Power</text><text transform="translate(136.345 286)" font-size="16" font-weight="700" font-family="Times New Roman,Times New Roman_MSFontService,sans-serif" fill="#FFFFFF">Supply</text><rect fill="#385723" stroke-miterlimit="8" stroke-width="3" stroke="#000000" height="273" width="70" y="124.5" x="388.5"/><text transform="translate(399.968 257)" font-size="15" font-weight="400" font-family="Times New Roman,Times New Roman_MSFontService,sans-serif" fill="#FFFFFF">Voltage</text><text transform="translate(403.214 275)" font-size="15" font-weight="400" font-family="Times New Roman,Times New Roman_MSFontService,sans-serif" fill="#FFFFFF">Sensor</text><path d="M332.5 181 381.857 181 381.857 184 332.5 184ZM380.357 178 389.357 182.5 380.357 187Z"/><path d="M195.501 335 381.193 335.108 381.191 338.108 195.499 338ZM379.695 332.107 388.692 336.612 379.69 341.107Z"/><rect fill="#1F4E79" stroke-miterlimit="8" stroke-width="3" stroke="#000000" height="81" width="146" y="142.5" x="479.5"/><text transform="translate(503.905 188)" font-size="16" font-weight="400" font-family="Times New Roman,Times New Roman_MSFontService,sans-serif" fill="#FFFFFF">Current Sensor</text><path d="M459.5 181 472.241 181 472.241 184 459.5 184ZM470.741 178 479.741 182.5 470.741 187Z"/><rect fill="#7F7F7F" stroke-miterlimit="8" stroke-width="3" stroke="#000000" height="94" width="56" y="291.5" x="750.5"/><text transform="translate(760.712 343)" font-size="12" font-weight="700" font-family="Times New Roman,Times New Roman_MSFontService,sans-serif" fill="#FFFFFF">LOAD</text><path d="M625.5 181 643.596 181 643.596 184 625.5 184ZM642.096 178 651.096 182.5 642.096 187Z"/><rect stroke-miterlimit="8" stroke-width="3" stroke="#000000" height="40" width="70" y="159.5" x="651.5"/><text transform="translate(668.463 184)" font-size="16" font-weight="400" font-family="Calibri,Calibri_MSFontService,sans-serif" fill="#FFFFFF">Relay</text><path d="M459.5 335 742.747 335 742.747 338 459.5 338ZM741.247 332 750.247 336.5 741.247 341Z"/><path fill-rule="evenodd" fill="#8497B0" stroke-miterlimit="8" stroke-width="3" stroke="#000000" d="M495.5 464.667C495.5 456.843 501.843 450.5 509.667 450.5L669.333 450.5C677.157 450.5 683.5 456.843 683.5 464.667L683.5 521.333C683.5 529.157 677.157 535.5 669.333 535.5L509.667 535.5C501.843 535.5 495.5 529.157 495.5 521.333Z"/><text transform="translate(513.208 487)" font-size="24" font-weight="400" font-family="Times New Roman,Times New Roman_MSFontService,sans-serif" fill="#FFFFFF">Microcontroller</text><text transform="translate(551.875 516)" font-size="24" font-weight="400" font-family="Times New Roman,Times New Roman_MSFontService,sans-serif" fill="#FFFFFF">Module</text><path transform="matrix(1.83697e-16 1 1 -1.83697e-16 423.5 397.5)" d="M0-1.5 97.2386-1.5 97.2386 64.3579 94.2386 64.3579 94.2386 0 95.7386 1.5 0 1.5ZM100.239 62.8578 95.7386 71.8578 91.2386 62.8578Z"/><path transform="matrix(1.83697e-16 1 1 -1.83697e-16 552.5 223.5)" d="M0-1.5 151.199-1.5 151.199 37.0533 149.699 35.5533 219.941 35.5533 219.941 38.5533 148.199 38.5533 148.199 0 149.699 1.5 0 1.5ZM218.441 32.5533 227.441 37.0533 218.441 41.5533Z"/><rect fill="#E7E6E6" stroke-miterlimit="8" stroke-width="3" stroke="#000000" height="165" width="179" y="431.5" x="728.5"/><text transform="translate(739.565 522)" font-size="24" font-weight="400" font-family="Times New Roman,Times New Roman_MSFontService,sans-serif">Display Module</text><path transform="matrix(1.83697e-16 1 1 -1.83697e-16 589.5 535.5)" d="M0-1.5 99.7324-1.5 99.7324 229.523 68.3683 229.523 68.3683 226.523 98.2324 226.523 96.7324 228.023 96.7324 0 98.2324 1.5 0 1.5ZM69.8683 232.523 60.8683 228.023 69.8683 223.523Z"/><path d="M806.5 335 914.457 335 914.457 338 806.5 338ZM912.957 332 921.957 336.5 912.957 341Z"/><path d="M978.5 335 1084.16 335 1084.16 338 978.5 338ZM1082.66 332 1091.66 336.5 1082.66 341Z"/><rect stroke-miterlimit="8" stroke-width="3" stroke="#000000" height="40" width="70" y="231.5" x="743.5"/><text transform="translate(760.752 256)" font-size="16" font-weight="400" font-family="Calibri,Calibri_MSFontService,sans-serif" fill="#FFFFFF">Relay</text><rect fill="#7F7F7F" stroke-miterlimit="8" stroke-width="3" stroke="#000000" height="94" width="56" y="289.5" x="922.5"/><text transform="translate(932.64 341)" font-size="12" font-weight="700" font-family="Times New Roman,Times New Roman_MSFontService,sans-serif" fill="#FFFFFF">LOAD</text><rect stroke-miterlimit="8" stroke-width="3" stroke="#000000" height="40" width="70" y="231.5" x="915.5"/><text transform="translate(932.68 256)" font-size="16" font-weight="400" font-family="Calibri,Calibri_MSFontService,sans-serif" fill="#FFFFFF">Relay</text><rect fill="#7F7F7F" stroke-miterlimit="8" stroke-width="3" stroke="#000000" height="94" width="56" y="288.5" x="1092.5"/><text transform="translate(1102.4 340)" font-size="12" font-weight="700" font-family="Times New Roman,Times New Roman_MSFontService,sans-serif" fill="#FFFFFF">LOAD</text><rect stroke-miterlimit="8" stroke-width="3" stroke="#000000" height="40" width="70" y="231.5" x="1085.5"/><text transform="translate(1102.44 256)" font-size="16" font-weight="400" font-family="Calibri,Calibri_MSFontService,sans-serif" fill="#FFFFFF">Relay</text><path d="M721.5 178 1121.83 178 1121.83 223.879 1118.83 223.879 1118.83 179.5 1120.33 181 721.5 181ZM1124.83 222.379 1120.33 231.379 1115.83 222.379Z"/><path d="M780 179.5 780 223.879 777 223.879 777 179.5ZM783 222.379 778.5 231.379 774 222.379Z"/><path d="M951 178.5 951 222.879 948 222.879 948 178.5ZM954 221.379 949.5 230.379 945 221.379Z"/><path d="M780 268.5 780 281.688 777 281.688 777 268.5ZM783 280.188 778.5 289.188 774 280.188Z"/><path d="M952 267.5 952 280.688 949 280.688 949 267.5ZM955 279.188 950.5 288.188 946 279.188Z"/><path d="M1122 267.5 1122 280.688 1119 280.688 1119 267.5ZM1125 279.188 1120.5 288.188 1116 279.188Z"/><rect fill="#1F4E79" stroke-miterlimit="8" stroke-width="3" stroke="#000000" height="58" width="99" y="153.5" x="233.5"/><text transform="translate(242.321 188)" font-size="16" font-weight="400" font-family="Times New Roman,Times New Roman_MSFontService,sans-serif" fill="#FFFFFF">AC Dimmer</text><path d="M195.5 181 225.142 181 225.142 184 195.5 184ZM223.642 178 232.642 182.5 223.642 187Z"/></g></svg>